<svg width="30" height="30" viewBox="0 0 30 30" fill="none" xmlns="http://www.w3.org/2000/svg">
<path d="M6.66667 30V26.6667H13.3333V21.5C11.9722 21.1944 10.7569 20.6181 9.6875 19.7708C8.61806 18.9236 7.83333 17.8611 7.33333 16.5833C5.25 16.3333 3.50694 15.4236 2.10417 13.8542C0.701389 12.2847 0 10.4444 0 8.33333V6.66667C0 5.75 0.326389 4.96528 0.979167 4.3125C1.63194 3.65972 2.41667 3.33333 3.33333 3.33333H6.66667V0H23.3333V3.33333H26.6667C27.5833 3.33333 28.3681 3.65972 29.0208 4.3125C29.6736 4.96528 30 5.75 30 6.66667V8.33333C30 10.4444 29.2986 12.2847 27.8958 13.8542C26.4931 15.4236 24.75 16.3333 22.6667 16.5833C22.1667 17.8611 21.3819 18.9236 20.3125 19.7708C19.2431 20.6181 18.0278 21.1944 16.6667 21.5V26.6667H23.3333V30H6.66667ZM6.66667 13V6.66667H3.33333V8.33333C3.33333 9.38889 3.63889 10.3403 4.25 11.1875C4.86111 12.0347 5.66667 12.6389 6.66667 13ZM15 18.3333C16.3889 18.3333 17.5694 17.8472 18.5417 16.875C19.5139 15.9028 20 14.7222 20 13.3333V3.33333H10V13.3333C10 14.7222 10.4861 15.9028 11.4583 16.875C12.4306 17.8472 13.6111 18.3333 15 18.3333ZM23.3333 13C24.3333 12.6389 25.1389 12.0347 25.75 11.1875C26.3611 10.3403 26.6667 9.38889 26.6667 8.33333V6.66667H23.3333V13Z" fill="black"/>
</svg>
